<svg viewBox="0 0 100 100" xmlns="http://www.w3.org/2000/svg">
  <g transform="rotate(15, 50, 50)">
    <path d="M 84.5,43.2 L 85.1,45.7 L 85.5,48.2 L 85.7,50.7 L 85.8,53.2 L 85.7,55.7 L 85.5,58.2 L 85.1,60.7 L 84.5,63.2 L 83.8,65.6 L 82.9,67.9 L 81.8,70.1 L 80.6,72.2 L 79.2,74.1 L 77.7,75.9 L 76.0,77.6 L 74.2,79.1 L 72.3,80.4 L 70.3,81.6 L 68.2,82.7 L 66.0,83.6 L 63.8,84.3 L 61.5,84.9 L 59.1,85.3 L 56.7,85.5 L 54.3,85.6 L 51.9,85.5 L 49.5,85.3 L 47.1,84.9 L 44.8,84.3 L 42.6,83.6 L 40.4,82.7 L 38.3,81.6 L 36.3,80.4 L 34.4,79.1 L 32.6,77.6 L 30.9,75.9 L 29.4,74.1 L 28.0,72.2 L 26.8,70.1 L 25.7,67.9 L 24.8,65.6 L 24.1,63.2 L 23.5,60.7 L 23.1,58.2 L 22.9,55.7 L 22.8,53.2 L 22.9,50.7 L 23.1,48.2 L 23.5,45.7 L 24.1,43.2 L 24.8,40.8 L 25.7,38.5 L 26.8,36.3 L 28.0,34.2 L 29.4,32.3 L 30.9,30.5 L 32.6,28.8 L 34.4,27.3 L 36.3,26.0 L 38.3,24.8 L 40.4,23.7 L 42.6,22.8 L 44.8,22.1 L 47.1,21.5 L 49.5,21.1 L 51.9,20.9 L 54.3,20.8 L 56.7,20.9 L 59.1,21.1 L 61.5,21.5 L 63.8,22.1 L 66.0,22.8 L 68.2,23.7 L 70.3,24.8 L 72.3,26.0 L 74.2,27.3 L 76.0,28.8 L 77.7,30.5 L 79.2,32.3 L 80.6,34.2 L 81.8,36.3 L 82.9,38.5 L 83.8,40.8 Z" fill="#808080"/>
    <circle cx="35" cy="55" r="5" fill="#606060"/>
    <circle cx="68" cy="40" r="8" fill="#606060"/>
    <circle cx="55" cy="28" r="4" fill="#00FFFF"/>
  </g>
</svg>
